<svg xmlns="http://www.w3.org/2000/svg" xmlns:xlink="http://www.w3.org/1999/xlink" width="500" zoomAndPan="magnify" viewBox="0 0 375 374.999991" height="500" preserveAspectRatio="xMidYMid meet" version="1.0"><defs><clipPath id="e284377341"><path d="M 219 78.6875 L 246 78.6875 L 246 112 L 219 112 Z M 219 78.6875 " clip-rule="nonzero"/></clipPath><clipPath id="74adf1bb38"><path d="M 15.800781 218 L 359.300781 218 L 359.300781 296.1875 L 15.800781 296.1875 Z M 15.800781 218 " clip-rule="nonzero"/></clipPath></defs><path fill="#81a828" d="M 148.503906 173.035156 L 140.953125 174.683594 L 140.953125 182.226562 L 148.503906 180.578125 Z M 158.589844 170.910156 L 151.042969 172.554688 L 151.042969 180.097656 L 158.589844 178.453125 Z M 158.589844 180.921875 L 151.042969 182.566406 L 151.042969 190.109375 L 158.589844 188.464844 Z M 148.503906 183.046875 L 140.953125 184.691406 L 140.953125 192.234375 L 148.503906 190.589844 Z M 148.503906 183.046875 " fill-opacity="1" fill-rule="evenodd"/><path fill="#84a704" d="M 76.308594 207.117188 L 138.757812 134.707031 L 147.609375 145.953125 L 96.003906 207.117188 Z M 76.308594 207.117188 " fill-opacity="1" fill-rule="evenodd"/><path fill="#587513" d="M 145.894531 126.339844 L 200.246094 144.785156 L 213.421875 167.070312 L 213.421875 131.140625 L 200.660156 135.050781 L 198.257812 132.375 L 198.257812 123.324219 L 215.34375 116.808594 L 238.128906 126.617188 L 238.128906 137.242188 L 234.421875 139.507812 L 234.421875 156.304688 L 258.167969 164.398438 L 310.324219 218.292969 L 208.6875 204.371094 Z M 145.894531 126.339844 " fill-opacity="1" fill-rule="evenodd"/><g clip-path="url(#e284377341)"><path fill="#84a704" d="M 235.863281 89.929688 C 233.601562 98.023438 229.34375 105.429688 223.582031 111.460938 C 231.265625 111.1875 238.265625 106.9375 242.109375 100.285156 C 245.953125 93.566406 246.023438 85.40625 242.316406 78.6875 C 234.835938 78.960938 227.972656 82.867188 223.785156 89.039062 C 219.667969 95.28125 218.707031 103.097656 221.316406 110.089844 C 227.21875 104.261719 232.160156 97.40625 235.863281 89.929688 Z M 235.863281 89.929688 " fill-opacity="1" fill-rule="evenodd"/></g><path fill="#84a704" d="M 213.011719 98.570312 C 214.316406 103.164062 216.71875 107.417969 220.011719 110.914062 C 215.621094 110.777344 211.640625 108.308594 209.445312 104.535156 C 207.246094 100.695312 207.179688 96.035156 209.304688 92.195312 C 213.5625 92.332031 217.542969 94.527344 219.875 98.089844 C 222.207031 101.65625 222.757812 106.113281 221.316406 110.089844 C 217.953125 106.800781 215.140625 102.890625 213.011719 98.570312 Z M 213.011719 98.570312 " fill-opacity="1" fill-rule="evenodd"/><g clip-path="url(#74adf1bb38)"><path fill="#84a704" d="M 70.199219 250.929688 C 71.574219 250.246094 73.011719 249.902344 74.453125 249.765625 C 75.347656 246.816406 77.132812 244.210938 79.738281 242.359375 C 79.671875 240.578125 80.492188 238.65625 82.621094 237.628906 C 82.621094 237.628906 82.691406 237.628906 82.691406 237.628906 C 82.550781 237.421875 82.484375 237.21875 82.414062 237.078125 C 80.355469 232.964844 82.070312 228.027344 86.121094 225.972656 C 87.082031 225.492188 88.113281 225.21875 89.070312 225.148438 C 89.757812 222.886719 91.199219 220.898438 93.328125 219.664062 C 93.53125 219.527344 93.738281 219.390625 93.945312 219.320312 C 94.152344 219.183594 94.425781 219.113281 94.632812 218.976562 C 95.042969 218.773438 95.523438 218.636719 95.933594 218.566406 L 95.933594 266.359375 C 112.128906 262.3125 128.53125 259.363281 145.003906 257.445312 L 145.003906 223.777344 L 173.824219 218.496094 L 173.824219 255.320312 C 209.648438 254.015625 245.679688 257.789062 280.679688 266.703125 L 280.679688 248.050781 C 281.707031 247.433594 282.941406 247.089844 284.246094 247.089844 C 285.34375 247.089844 286.375 247.363281 287.265625 247.777344 C 288.570312 245.375 291.109375 243.664062 293.992188 243.664062 C 298.179688 243.664062 301.539062 247.089844 301.539062 251.203125 C 301.539062 253.878906 300.238281 256.140625 298.179688 257.511719 C 298.453125 257.925781 298.726562 258.335938 298.863281 258.746094 C 302.296875 259.980469 304.765625 263.273438 304.765625 267.113281 C 304.765625 269.308594 303.941406 271.363281 302.636719 272.941406 C 321.921875 279.113281 340.796875 286.859375 359.117188 296.1875 C 246.433594 268.691406 128.667969 268.691406 15.984375 296.1875 C 30.738281 288.644531 45.90625 282.128906 61.277344 276.644531 C 60.179688 273.558594 61.074219 269.582031 64.984375 267.660156 C 65.054688 267.660156 65.054688 267.660156 65.121094 267.59375 C 64.984375 267.320312 64.847656 267.042969 64.710938 266.769531 C 61.894531 261.011719 64.296875 253.878906 70.199219 250.929688 Z M 70.199219 250.929688 " fill-opacity="1" fill-rule="evenodd"/></g></svg>